# xmcd
#
# Track frame offsets: 
#        150
#        16824
#        30868
#        50555
#        71570
#        93064
#        108241
#        124080
#        132325
#        149005
#        164370
#        183270
#
# Disc length: 2954 seconds
#
# Revision: 0
# Processed by: cddbd v1.5.2PL0 Copyright (c) Steve Scherf et al.
# Submitted via: ExactAudioCopyFreeDBPlugin 1.0
#
DISCID=9a0b880c
DTITLE=Cross Canadian Ragweed - Happiness and all other Things
DYEAR=2009
DGENRE=Country Rock
TTITLE0=51 Pieces
TTITLE1=Blue Bonnets
TTITLE2=Burn Like The Sun
TTITLE3=To Find My Love
TTITLE4=Drag
TTITLE5=Kick In The Head
TTITLE6=Overtable
TTITLE7=Overtable Interlude
TTITLE8=Pretty Lady
TTITLE9=Tomorrow
TTITLE10=Confident
TTITLE11=My Chances
EXTD=
EXTT0=
EXTT1=
EXTT2=
EXTT3=
EXTT4=
EXTT5=
EXTT6=
EXTT7=
EXTT8=
EXTT9=
EXTT10=
EXTT11=
PLAYORDER=
